<svg xmlns="http://www.w3.org/2000/svg" width="78.998" height="53.184" viewBox="0 0 78.998 53.184"><defs><style>.a{fill:#413ad3;}.b{fill:#f75002;}.c{fill:#4557ff;}</style></defs><path class="a" d="M206.467,461.576H188.4a18.066,18.066,0,1,1,18.066-18.065ZM188.4,435.865a7.646,7.646,0,1,0,0,15.292h7.646v-7.646A7.654,7.654,0,0,0,188.4,435.865Z" transform="translate(-170.336 -408.392)"/><path class="b" d="M262.824,440.765l-4.949-5.907a1.5,1.5,0,0,0-2.218,0l-4.949,5.907a1.447,1.447,0,0,0,1.109,2.376h9.9a1.447,1.447,0,0,0,1.109-2.376Z" transform="translate(-204.084 -412.149)"/><path class="c" d="M241.344,449.17H214.752V422.578a26.592,26.592,0,1,1,26.592,26.592Zm-16.173-10.42h16.173a16.172,16.172,0,1,0,0-32.345h0a16.191,16.191,0,0,0-16.172,16.173Z" transform="translate(-188.939 -395.986)"/></svg>